<svg width="48" height="18" viewBox="0 0 48 18" fill="none" xmlns="http://www.w3.org/2000/svg">
<path fill-rule="evenodd" clip-rule="evenodd" d="M34.3764 0.118823C34.3503 0.327979 34.4143 0.490359 34.5608 0.586578C34.6173 0.623686 34.6213 0.623708 34.6358 0.587069C34.6661 0.510659 34.6549 0.265423 34.6176 0.186662C34.586 0.119942 34.4499 0 34.4058 0C34.3978 0 34.3845 0.0534688 34.3764 0.118823ZM32.5772 0.294543C32.4932 0.462853 32.4883 0.581543 32.5597 0.71675C32.5879 0.770152 32.6214 0.817333 32.6341 0.821563C32.6789 0.836514 32.7767 0.615987 32.7764 0.500565C32.7762 0.404861 32.6897 0.156671 32.6565 0.156671C32.6507 0.156671 32.6151 0.218714 32.5772 0.294543ZM35.2263 0.282254C35.1832 0.326726 35.1362 0.398661 35.1218 0.442149C35.0935 0.528229 35.1072 0.75341 35.1431 0.789288C35.1763 0.822592 35.2963 0.726732 35.3478 0.625702C35.4167 0.49045 35.4013 0.201435 35.3252 0.201435C35.3139 0.201435 35.2694 0.237804 35.2263 0.282254ZM33.0169 0.367193C32.853 0.711333 32.9611 1.20644 33.2502 1.43571L33.3361 1.5038L33.3961 1.373C33.4479 1.26002 33.4561 1.21317 33.4559 1.02955C33.4556 0.791727 33.4097 0.637988 33.2894 0.471626C33.232 0.392373 33.1069 0.29132 33.0658 0.291051C33.0589 0.291006 33.0368 0.325272 33.0169 0.367193ZM33.9063 0.389708C33.6572 0.63904 33.5849 1.06176 33.732 1.40767L33.7714 1.50013L33.8384 1.45199C33.9471 1.37394 34.067 1.2104 34.1222 1.06472C34.1956 0.871205 34.1947 0.574357 34.1203 0.408464C34.0913 0.343826 34.0535 0.290961 34.0363 0.290961C34.019 0.290961 33.9605 0.335411 33.9063 0.389708ZM31.6834 0.607973C31.6221 0.784004 31.6859 1.00048 31.8323 1.11353L31.904 1.16895L31.9268 1.10899C31.9565 1.03081 31.956 0.847926 31.9258 0.768024C31.9005 0.700834 31.806 0.591143 31.7449 0.557928C31.7154 0.541926 31.7029 0.552153 31.6834 0.607973ZM35.7049 0.741145C35.418 0.854553 35.2029 1.25747 35.2458 1.60125C35.2628 1.73724 35.2683 1.73999 35.4203 1.68813C35.5771 1.63462 35.7131 1.50089 35.8096 1.30529C35.8841 1.15438 35.894 1.11387 35.9022 0.926263L35.9114 0.716212L35.8361 0.717621C35.7947 0.718405 35.7356 0.728992 35.7049 0.741145ZM34.687 0.956814C34.5485 1.09594 34.4512 1.30232 34.4363 1.48903C34.4234 1.6491 34.4602 1.87466 34.5172 1.98599L34.5546 2.05902L34.637 2.00297C34.7358 1.93578 34.8365 1.79456 34.9025 1.63081C34.9773 1.44523 34.9739 1.15026 34.895 0.979196C34.8623 0.908425 34.826 0.850501 34.8142 0.850501C34.8025 0.850501 34.7452 0.898353 34.687 0.956814ZM36.3101 0.991619C36.1965 1.05017 36.1298 1.15787 36.1126 1.31069C36.1019 1.40624 36.1037 1.41004 36.1611 1.41004C36.2513 1.41004 36.3941 1.32763 36.4439 1.24688C36.4758 1.19518 36.4865 1.1437 36.4821 1.06333C36.4749 0.929755 36.4502 0.91946 36.3101 0.991619ZM32.3218 1.05543C32.1994 1.26452 32.1858 1.31756 32.1851 1.58909C32.1844 1.81132 32.1914 1.86213 32.2361 1.96103C32.2646 2.02404 32.3212 2.1079 32.3619 2.1474L32.4359 2.21923L32.4804 2.15595C32.6253 1.95016 32.6859 1.70385 32.6467 1.48079C32.6159 1.30572 32.5231 1.09683 32.4415 1.01848L32.3786 0.958202L32.3218 1.05543ZM31.0847 1.04388C31.0638 1.09836 31.0958 1.39543 31.1353 1.51418C31.2305 1.8 31.4718 2.01435 31.6985 2.01435H31.7536L31.7441 1.79612C31.7324 1.52779 31.6693 1.37815 31.5017 1.22123C31.3485 1.0777 31.1105 0.976488 31.0847 1.04388ZM30.6224 1.16664C30.5974 1.29167 30.6076 1.45749 30.6451 1.53661C30.6888 1.62891 30.8242 1.7401 30.8551 1.70913C30.8859 1.67829 30.9069 1.49303 30.8899 1.40219C30.8763 1.32927 30.6965 1.0967 30.6538 1.0967C30.6442 1.0967 30.6301 1.12817 30.6224 1.16664ZM5.02533 1.33419C4.52469 1.36555 4.01967 1.44534 3.633 1.55418C2.69386 1.81857 1.78213 2.39846 1.18812 3.10916C0.726504 3.66148 0.418859 4.24729 0.220722 4.95135C0.0598913 5.52286 -0.000818738 5.96177 8.32516e-06 6.54662C0.00208716 7.97338 0.398608 9.17884 1.16889 10.0999C1.79956 10.854 2.78692 11.3983 3.87415 11.5913C4.35903 11.6773 4.60194 11.6944 5.31592 11.693C6.07494 11.6915 6.69166 11.6601 7.29417 11.5925C7.74695 11.5417 8.31087 11.458 8.34561 11.4365C8.35877 11.4283 8.39883 11.2883 8.43464 11.1253C8.47043 10.9624 8.53087 10.7115 8.56894 10.5679C8.63794 10.3075 9.00393 9.09723 9.0703 8.90999C9.08952 8.85576 9.10128 8.80741 9.09645 8.80255C9.06851 8.7746 8.72483 8.72346 8.65462 8.73682C8.488 8.76854 8.43563 8.8285 8.29981 9.14296C7.92417 10.0128 7.64544 10.357 7.10417 10.6196C6.7068 10.8124 6.26139 10.8999 5.6784 10.8998C5.14941 10.8996 4.78674 10.8201 4.35474 10.6097C4.01048 10.4421 3.73847 10.2488 3.47164 9.9822C2.94596 9.45704 2.55742 8.75533 2.31292 7.88952C2.04549 6.94255 2.02694 5.67571 2.26654 4.72252C2.63174 3.26953 3.55472 2.3814 4.90525 2.18346C5.21632 2.13787 5.85615 2.13749 6.15991 2.18275C7.16181 2.33196 7.6055 2.73904 8.04154 3.9092C8.10961 4.09187 8.17456 4.1406 8.34999 4.1406C8.45688 4.1406 8.7035 4.09834 8.72957 4.07556C8.73835 4.06788 8.72536 3.98117 8.70071 3.88287C8.56324 3.33475 8.47213 2.76881 8.37804 1.87829L8.36486 1.75342L7.91332 1.6476C7.30932 1.50606 7.3211 1.50857 7.01475 1.45702C6.46652 1.36476 5.49504 1.3048 5.02533 1.33419ZM42.3773 1.3354C42.3162 1.35187 42.1936 1.4467 42.1528 1.5091C42.1343 1.53733 42.0481 1.73052 41.9612 1.93845C41.8742 2.14637 41.6114 2.77476 41.3771 3.33486C41.1428 3.89496 40.9136 4.44387 40.8677 4.55466C40.8219 4.66545 40.6926 4.97514 40.5805 5.24289C40.4684 5.51064 40.2862 5.94624 40.1755 6.2109C40.0649 6.47556 39.8826 6.91115 39.7705 7.1789C39.6584 7.44665 39.5291 7.75635 39.4833 7.86714C39.4375 7.97793 39.2059 8.53187 38.9688 9.09813C38.7316 9.66438 38.5071 10.2032 38.4699 10.2955C38.3741 10.5332 38.2607 10.697 38.1329 10.7826C38.0196 10.8584 37.6991 10.9671 37.4494 11.0144C37.276 11.0473 37.2113 11.106 37.1897 11.2501C37.1753 11.3465 37.1858 11.562 37.2059 11.5821C37.2113 11.5875 37.3058 11.5826 37.4159 11.5712C38.1043 11.4999 38.9976 11.4996 40.0973 11.5703C40.2571 11.5806 40.3929 11.5842 40.399 11.5783C40.4052 11.5724 40.4102 11.478 40.4102 11.3686C40.4102 11.0973 40.3923 11.0805 40.0208 11.0036C39.5422 10.9045 39.4022 10.8018 39.4068 10.5529C39.4089 10.4389 39.448 10.3175 39.6659 9.74719C39.8071 9.3779 40.0013 8.86173 40.0975 8.60013L40.2723 8.12453H41.8868C43.4037 8.12453 43.5023 8.1269 43.5168 8.16369C43.5253 8.18525 43.6665 8.56544 43.8305 9.0086C43.9946 9.45176 44.1758 9.9352 44.2331 10.0829C44.3139 10.2912 44.3401 10.3906 44.3494 10.5256L44.3614 10.6998L44.2726 10.7843C44.1747 10.8776 44.0204 10.9416 43.7323 11.0086C43.4672 11.0703 43.4299 11.1116 43.4214 11.3536C43.4179 11.4549 43.4229 11.5487 43.4326 11.5622C43.4505 11.5871 43.6111 11.5838 45.1589 11.5269C45.777 11.5042 46.2783 11.5145 47.2613 11.57C47.4518 11.5808 47.6152 11.5849 47.6245 11.5791C47.6338 11.5734 47.6414 11.4788 47.6414 11.3689C47.6414 11.1824 47.6373 11.1646 47.5797 11.0999C47.5275 11.0415 47.4869 11.0244 47.317 10.99C46.9221 10.9099 46.6603 10.7756 46.5578 10.6005C46.5267 10.5475 46.3549 10.1424 46.1759 9.70037C45.997 9.25836 45.7364 8.61468 45.5969 8.27001C45.4574 7.92533 45.2961 7.5275 45.2384 7.38593C45.1807 7.24437 45.0479 6.91704 44.9434 6.65853C44.8387 6.40002 44.69 6.0324 44.6128 5.8416C44.5356 5.6508 44.4059 5.33103 44.3246 5.13099C44.1477 4.69598 43.9549 4.2205 43.6733 3.5251C43.5587 3.24198 43.3728 2.78371 43.2603 2.50674C43.1478 2.22977 42.9987 1.8596 42.9289 1.68415C42.8579 1.50577 42.7872 1.36076 42.7685 1.35516C42.709 1.33739 42.4234 1.32298 42.3773 1.3354ZM36.8896 1.39041C36.8589 1.4027 36.8112 1.43392 36.7837 1.45984C36.7349 1.50568 36.6437 1.71445 36.6437 1.78019C36.6437 1.82936 36.7527 1.82081 36.8681 1.76255C36.981 1.70555 37.0684 1.56427 37.0684 1.43887C37.0684 1.37316 37.0618 1.36543 37.007 1.36669C36.9732 1.36747 36.9203 1.37815 36.8896 1.39041ZM16.8613 1.44435C16.2833 1.5004 15.4726 1.52137 13.8771 1.52155C12.3528 1.5217 11.0447 1.49628 10.5018 1.45593C10.3307 1.44319 10.2255 1.44384 10.2112 1.45769C10.1989 1.46964 10.1889 1.5638 10.1889 1.66692C10.1889 1.82242 10.1969 1.86517 10.2358 1.91759C10.2854 1.98422 10.2843 1.98386 10.754 2.09248C11.1573 2.18577 11.3157 2.26929 11.3869 2.42619C11.427 2.51455 11.4285 2.66478 11.4285 6.51305C11.4285 10.3672 11.427 10.5114 11.3867 10.6003C11.3061 10.778 11.117 10.87 10.5912 10.9872C10.241 11.0654 10.2121 11.0841 10.1873 11.2495C10.1713 11.3562 10.1889 11.5476 10.2171 11.5735C10.2261 11.5819 10.3895 11.5802 10.5801 11.5698C11.7929 11.5037 15.2125 11.4769 16.1768 11.5259C17.3527 11.5856 17.7 11.5954 17.7703 11.5707C17.8843 11.5307 17.9299 11.3983 18.0792 10.6735C18.1777 10.1959 18.2462 9.94241 18.395 9.50505C18.4612 9.31031 18.5154 9.14253 18.5154 9.13224C18.5154 9.10274 18.1907 8.97503 18.1157 8.97503C17.9798 8.97503 17.9447 9.01191 17.7776 9.33036C17.41 10.0307 17.1064 10.3658 16.6471 10.5783C16.3343 10.723 16.1738 10.7425 15.2949 10.7429C14.0046 10.7434 13.5756 10.6692 13.4301 10.4206L13.3742 10.3252V8.54221V6.75925H14.5095C15.6424 6.75925 15.6449 6.75936 15.7443 6.80961C15.7991 6.83729 15.8668 6.89454 15.8949 6.9368C15.9599 7.03483 16.0416 7.30704 16.0999 7.62009C16.1595 7.94042 16.1729 7.95431 16.4316 7.96387C16.7008 7.97381 16.711 7.96432 16.6814 7.73285C16.6419 7.42338 16.6286 6.01707 16.6601 5.46111C16.6757 5.18414 16.6896 4.92243 16.6911 4.87953L16.6936 4.80155L16.5595 4.78333C16.4109 4.76317 16.2104 4.79479 16.1688 4.84499C16.1549 4.86178 16.1194 5.00475 16.0899 5.16272C15.9809 5.7465 15.911 5.89263 15.706 5.96584C15.6385 5.98995 15.3862 5.99651 14.4974 5.99729L13.3742 5.99827V4.13941V2.28055L14.6427 2.28892C16.0651 2.29832 16.0594 2.29774 16.4083 2.46453C16.7479 2.6268 16.9708 2.88873 17.2854 3.49531C17.3716 3.66163 17.462 3.81562 17.4861 3.83751C17.5511 3.89639 17.7073 3.9064 17.8479 3.86072C17.9138 3.83928 17.9757 3.81452 17.9855 3.80566C17.9952 3.79682 17.9787 3.71477 17.949 3.62334C17.8168 3.21803 17.6957 2.66603 17.6328 2.18221C17.5524 1.56331 17.543 1.52667 17.4492 1.46515C17.3714 1.41409 17.2263 1.40897 16.8613 1.44435ZM34.0982 1.4604C34.0879 1.48809 34.0733 1.58126 34.0655 1.66743C34.0383 1.96956 33.912 2.31976 33.5858 2.99752L33.4304 3.32045L33.2824 3.12062C32.9837 2.71742 32.9308 2.54756 32.9347 2.00315L32.9374 1.62267L32.872 1.61593C32.8072 1.60926 32.8062 1.61107 32.7581 1.80707C32.6252 2.34976 32.6474 2.5763 32.9014 3.27255C33.0331 3.63383 33.118 3.97097 33.1074 4.09118C33.101 4.16414 33.091 4.15367 32.8306 3.80116C32.2729 3.04609 32.0987 2.65688 32.0681 2.09709L32.0549 1.85532L31.9855 1.86208C31.9186 1.86862 31.9154 1.87388 31.8978 2.00315C31.8728 2.18753 31.8962 2.53488 31.9488 2.76084C32.0296 3.1078 32.1352 3.34227 32.4591 3.894C32.9186 4.67689 33.0897 5.08237 33.1439 5.51707L33.1578 5.62898L33.0657 5.52293C33.0151 5.4646 32.8944 5.35124 32.7975 5.27103C32.516 5.03783 32.3535 4.78427 32.2294 4.38494C32.1973 4.28133 32.1506 4.13127 32.1258 4.05145C32.0845 3.91884 31.8295 3.34413 31.7961 3.30856C31.7883 3.30024 31.7539 3.31602 31.7197 3.34361L31.6574 3.39379L31.8159 3.98232C31.9031 4.30602 31.97 4.57523 31.9647 4.58058C31.9593 4.58595 31.8305 4.50354 31.6784 4.39745C31.5264 4.29138 31.2162 4.07482 30.9893 3.9162C30.7623 3.75758 30.5724 3.632 30.5673 3.63715C30.55 3.65447 30.6114 3.86 30.6675 3.97274C30.7434 4.125 30.7971 4.17811 31.3168 4.6141C31.565 4.82234 31.7968 5.03188 31.832 5.07969C31.8671 5.12752 31.9657 5.22156 32.0512 5.28871C32.3323 5.50944 32.5674 5.8506 32.7121 6.24783C32.779 6.43134 32.9274 7.01617 32.9773 7.29282C33.0102 7.47526 33.039 7.82179 33.0675 8.37813C33.0909 8.83546 33.0774 9.15336 33.0117 9.69124C32.9944 9.8328 32.9578 10.1455 32.9302 10.3862L32.8802 10.8238L32.7111 10.8955C32.618 10.9349 32.4165 10.9968 32.2631 11.0331C31.9625 11.1041 31.9429 11.1169 31.9019 11.2684C31.8799 11.3499 31.8863 11.6049 31.911 11.6296C31.9165 11.6351 32.0858 11.6231 32.2873 11.603C32.589 11.5729 32.8214 11.5685 33.6037 11.5786C34.1262 11.5853 34.6733 11.6018 34.8194 11.6153C34.9655 11.6288 35.0912 11.6337 35.0987 11.6262C35.1251 11.5998 35.1285 11.2639 35.1028 11.2159C35.0615 11.1385 34.9778 11.098 34.7934 11.0659C34.569 11.027 34.3365 10.9548 34.2752 10.905C34.233 10.8708 34.2216 10.8194 34.1849 10.4968C34.1618 10.2938 34.1148 9.89603 34.0803 9.6129C34.026 9.16599 34.018 9.02438 34.0202 8.53859C34.0227 7.9801 34.0588 7.52658 34.1297 7.16212C34.1477 7.06979 34.1774 6.90692 34.1958 6.80018C34.3123 6.12336 34.6465 5.58054 35.1461 5.25686C35.2383 5.19712 35.3259 5.13806 35.3407 5.12561C35.3556 5.11319 35.3789 5.10301 35.3926 5.10301C35.4063 5.10301 35.5481 5.03654 35.7076 4.95529C36.1397 4.73532 36.3228 4.54888 36.4228 4.22733C36.4459 4.15282 36.4649 4.08431 36.4649 4.07507C36.4649 4.06584 36.2065 4.16242 35.8907 4.2897C35.5749 4.41697 35.3076 4.52109 35.2967 4.52109C35.2858 4.52109 35.3447 4.42288 35.4277 4.30287C35.5106 4.18286 35.6291 4.01139 35.6909 3.92186L35.8032 3.75908L35.756 3.71181L35.7088 3.66452L35.6321 3.71195C35.5642 3.754 34.7219 4.65256 34.7025 4.70374C34.6982 4.71489 34.6329 4.75518 34.5572 4.79327C34.34 4.9026 34.1216 5.05149 33.9799 5.18683L33.8493 5.31154L33.8628 5.23526C33.9285 4.86263 34.0516 4.54134 34.218 4.30788C34.4435 3.99149 34.7569 3.75752 35.4798 3.36595C35.6999 3.24677 35.8944 3.12387 35.965 3.05941C36.0729 2.96084 36.0807 2.94723 36.0579 2.89714C36.0442 2.86706 36.0238 2.84247 36.0126 2.84247C36.0014 2.84247 35.7802 2.90307 35.5211 2.97713C35.262 3.0512 35.0452 3.10708 35.0395 3.10129C35.0337 3.09551 35.045 3.02232 35.0646 2.93864C35.1803 2.44414 35.1745 2.16978 35.0411 1.82846C34.9967 1.7149 34.9767 1.68493 34.9623 1.71065C34.9517 1.72961 34.9335 1.91139 34.9219 2.11457C34.8884 2.70066 34.8066 2.96718 34.586 3.20885C34.4853 3.31919 34.0212 3.74798 33.8301 3.90727L33.7547 3.97009L33.7704 3.89308C33.8082 3.70608 33.9084 3.41065 34.0394 3.09936C34.2937 2.4953 34.3292 2.34284 34.3134 1.9192C34.3007 1.57585 34.2547 1.41004 34.1723 1.41004C34.1351 1.41004 34.1106 1.42667 34.0982 1.4604ZM19.535 1.46741C19.5077 1.53876 19.521 1.81466 19.555 1.8805C19.602 1.97144 19.6548 1.99398 19.9236 2.03778C20.398 2.11511 20.6113 2.21325 20.711 2.40014L20.7619 2.49555L20.7687 6.41233C20.7724 8.56656 20.7691 10.3917 20.7614 10.4682C20.7309 10.7696 20.5837 10.8659 19.9471 11.0012C19.6069 11.0735 19.5995 11.0812 19.5995 11.3648V11.5825L19.6778 11.5808C19.7208 11.5798 20.0326 11.5649 20.3707 11.5477C21.298 11.5005 23.5224 11.5221 24.0962 11.584L24.2116 11.5964L24.2272 11.45C24.2467 11.2682 24.2282 11.1634 24.1633 11.0879C24.1189 11.0362 24.0761 11.0233 23.79 10.9758C23.2051 10.8785 22.9997 10.8081 22.8487 10.6533C22.7683 10.5708 22.7394 10.5209 22.7202 10.4313C22.7034 10.3528 22.6954 9.79263 22.6954 8.68297V7.05021H23.03H23.3646L23.5789 7.36915C24.4504 8.66567 25.8108 10.6683 25.9015 10.788C26.0446 10.9768 26.365 11.2951 26.5043 11.3866C26.7479 11.5469 26.7863 11.5534 27.6019 11.5735C28.0076 11.5835 28.5657 11.6015 28.8422 11.6136C29.1186 11.6256 29.3477 11.6325 29.3512 11.6289C29.3748 11.6054 29.3798 11.3205 29.3581 11.2403C29.328 11.1291 29.3211 11.1253 28.9311 11.002C28.7892 10.9571 28.5892 10.8796 28.4866 10.8295C28.1673 10.674 28.062 10.5486 27.2435 9.34972C26.8505 8.77411 26.4083 8.12732 26.2607 7.91239C25.6465 7.01762 25.4896 6.78561 25.4896 6.77279C25.4896 6.76534 25.5021 6.75922 25.5175 6.75918C25.5649 6.75907 26.0057 6.52961 26.1825 6.41296C26.3942 6.2733 26.7901 5.87884 26.9244 5.67374C27.341 5.0377 27.4575 4.3483 27.2744 3.60344C27.0265 2.5947 26.1688 1.86658 24.9307 1.61389C24.5497 1.53612 24.2305 1.52316 22.4384 1.51259C20.8647 1.50335 19.9659 1.48117 19.6524 1.44388C19.5703 1.43412 19.5459 1.439 19.535 1.46741ZM30.1511 1.63945C30.1711 1.7327 30.2212 1.8329 30.2799 1.89709C30.3345 1.95689 30.4724 1.99892 30.55 1.97941C30.6042 1.9658 30.6046 1.96392 30.5751 1.86578C30.515 1.66598 30.4015 1.56694 30.2322 1.5668L30.1354 1.56671L30.1511 1.63945ZM33.4493 1.80165C33.3854 1.86931 33.3063 1.98263 33.2735 2.05344C33.221 2.16685 33.2138 2.21043 33.2132 2.41889C33.2126 2.62335 33.2199 2.67136 33.2666 2.7714C33.2964 2.8351 33.3293 2.88723 33.3398 2.88723C33.3903 2.88723 33.5663 2.68754 33.6301 2.55795C33.6934 2.42921 33.7022 2.38707 33.7111 2.1716C33.7203 1.94796 33.7167 1.92032 33.6636 1.8042C33.632 1.73513 33.597 1.67862 33.5858 1.67862C33.5746 1.67862 33.5132 1.73399 33.4493 1.80165ZM36.0693 1.83221C35.7568 1.94031 35.5726 2.18409 35.5528 2.51572L35.5423 2.69257L35.6813 2.67995C36.01 2.6501 36.2861 2.30562 36.2861 1.92538C36.2861 1.80024 36.2825 1.79057 36.2358 1.79127C36.2081 1.79167 36.1332 1.81009 36.0693 1.83221ZM31.0331 2.25855C31.0331 2.35094 31.107 2.57706 31.1755 2.69396C31.303 2.91196 31.5716 3.0695 31.7564 3.03479C31.8478 3.0176 31.8563 2.9836 31.8146 2.80238C31.7321 2.44436 31.4545 2.1934 31.1409 2.1934C31.0368 2.1934 31.0331 2.19561 31.0331 2.25855ZM29.9854 2.23364L29.9101 2.24141L29.9251 2.35475C29.9767 2.74381 30.3912 3.07521 30.709 2.98143C30.7686 2.96384 30.7753 2.95321 30.7693 2.88528C30.734 2.48575 30.3816 2.19279 29.9854 2.23364ZM36.8302 2.26066C36.5668 2.31518 36.3509 2.53667 36.2892 2.81583C36.2688 2.90804 36.2705 2.9133 36.3273 2.93526C36.3599 2.9479 36.4433 2.95838 36.5125 2.95854C36.8069 2.95928 37.068 2.73651 37.1656 2.40146C37.1969 2.29405 37.1966 2.28413 37.1619 2.27404C37.0761 2.24908 36.9171 2.24266 36.8302 2.26066ZM23.8917 2.34503C24.4471 2.46677 24.7933 2.727 25.0213 3.1943C25.3068 3.77943 25.337 4.73599 25.0888 5.32991C24.9147 5.74637 24.5613 6.04337 24.0813 6.17656C23.8421 6.24295 23.4083 6.28923 23.0253 6.28923H22.6954V4.28342V2.27758L23.1928 2.28921C23.5706 2.29805 23.7386 2.31146 23.8917 2.34503ZM32.3654 2.47541C32.358 2.49465 32.3519 2.57545 32.3519 2.65495C32.3519 2.82498 32.4013 2.93933 32.5088 3.01854C32.5932 3.08067 32.6105 3.06604 32.6336 2.91297C32.6525 2.78734 32.6142 2.66128 32.5267 2.56146C32.4354 2.45737 32.383 2.42939 32.3654 2.47541ZM37.5018 2.83902C37.4636 2.8631 37.4098 2.91436 37.3824 2.95294C37.3221 3.03766 37.343 3.07535 37.4713 3.11384C37.6071 3.15458 37.7014 3.12403 37.8056 3.00556L37.897 2.90164L37.8281 2.858C37.7267 2.79372 37.5868 2.78557 37.5018 2.83902ZM29.5299 3.10276C29.4014 3.1407 29.6147 3.6083 29.8197 3.73854C29.9539 3.82372 30.0477 3.84935 30.2257 3.8495L30.3683 3.84964L30.353 3.73466C30.324 3.51532 30.1655 3.28211 29.9659 3.16501C29.8879 3.11921 29.8271 3.10288 29.7159 3.09786C29.6351 3.09421 29.5514 3.09643 29.5299 3.10276ZM36.5543 3.2215C36.3052 3.29766 36.096 3.53117 36.0285 3.80863C36.011 3.88012 36.0544 3.91038 36.2036 3.93086C36.5061 3.97238 36.8633 3.67562 36.9239 3.3324C36.938 3.25194 36.9377 3.25151 36.8369 3.22609C36.7237 3.19753 36.6373 3.19614 36.5543 3.2215ZM30.9018 3.26807C30.8546 3.28822 30.8503 3.30062 30.8629 3.37987C30.9 3.6121 31.0681 3.85208 31.2611 3.94839C31.3566 3.99604 31.4086 4.00631 31.5541 4.00631H31.731L31.7157 3.92421C31.6448 3.54603 31.3908 3.27215 31.0942 3.25395C31.0175 3.24925 30.931 3.25561 30.9018 3.26807ZM37.3026 3.51582C37.2654 3.52636 37.2009 3.57011 37.1594 3.61304C37.0943 3.6803 37.0879 3.69612 37.1136 3.7271C37.1978 3.82869 37.3905 3.85783 37.5 3.78556C37.5804 3.73247 37.6346 3.65485 37.6192 3.61476C37.5919 3.54352 37.4079 3.486 37.3026 3.51582ZM37.7707 3.8737C37.6705 3.90284 37.6174 3.96835 37.6478 4.02527C37.6849 4.09467 37.7991 4.16629 37.8927 4.17887C37.9862 4.19143 38.1637 4.1175 38.1637 4.066C38.1637 4.02249 38.0516 3.9237 37.9577 3.8844C37.8651 3.84568 37.8668 3.84576 37.7707 3.8737ZM29.3103 3.93863C29.1805 4.00734 29.162 4.04252 29.222 4.10642C29.29 4.17896 29.4028 4.23012 29.4945 4.23012C29.5761 4.23012 29.7366 4.13574 29.7366 4.08773C29.7366 4.02312 29.5379 3.89353 29.4416 3.89538C29.4133 3.89594 29.3542 3.91539 29.3103 3.93863ZM42.0157 4.18536C42.0709 4.32693 42.1665 4.57872 42.2282 4.7449C42.2898 4.91109 42.5078 5.49021 42.7127 6.03185C42.9175 6.57348 43.1142 7.09468 43.1498 7.19009L43.2144 7.36355H41.8961C41.0756 7.36355 40.5779 7.35549 40.5779 7.34222C40.5779 7.33049 40.5877 7.29775 40.5997 7.26948C40.6118 7.24121 40.6661 7.10225 40.7205 6.96068C40.7749 6.81912 40.8545 6.61265 40.8975 6.50186C40.9405 6.39107 41.0612 6.07885 41.1658 5.80803C41.2704 5.53721 41.4669 5.02859 41.6025 4.67776C41.738 4.32693 41.86 4.01078 41.8734 3.97522C41.8869 3.93968 41.9018 3.9145 41.9066 3.91927C41.9114 3.92406 41.9605 4.0438 42.0157 4.18536ZM30.1052 4.19152C30.0682 4.2066 30.0059 4.23836 29.9669 4.26211C29.8969 4.30466 29.8963 4.30642 29.9277 4.38158C29.982 4.5118 30.0867 4.62274 30.2249 4.69647C30.3373 4.75643 30.3811 4.76722 30.5109 4.76679C30.6613 4.76632 30.7836 4.72832 30.8848 4.65068C30.9253 4.61959 30.9251 4.61634 30.8811 4.53073C30.8231 4.41811 30.6727 4.26721 30.5675 4.21596C30.4673 4.16721 30.1997 4.15304 30.1052 4.19152ZM36.9567 4.19678C36.8114 4.24501 36.6617 4.36466 36.5993 4.48246L36.5451 4.58474L36.6 4.63073C36.6829 4.70016 36.8783 4.76731 36.9966 4.76706C37.1862 4.76668 37.4125 4.62885 37.5501 4.43004C37.6131 4.33892 37.6135 4.33655 37.5705 4.30428C37.4002 4.17648 37.1499 4.13265 36.9567 4.19678ZM28.9543 4.46686C28.8794 4.49947 28.686 4.66972 28.686 4.70307C28.686 4.73129 28.8443 4.77245 28.953 4.77245C29.0786 4.77245 29.1796 4.72476 29.2431 4.63548C29.3032 4.55094 29.3018 4.53787 29.2281 4.49492C29.1315 4.43863 29.0405 4.4293 28.9543 4.46686Z" fill="#161613"/>
<path d="M1.03885 15.9092V15.6021H1.9209C2.08642 15.6021 2.21709 15.5956 2.31292 15.5825C2.40874 15.5651 2.48279 15.5346 2.53506 15.4911C2.58733 15.4432 2.62653 15.38 2.65267 15.3016C2.68316 15.2188 2.71365 15.1143 2.74414 14.988H2.95975V16.5169H2.74414C2.71365 16.3949 2.68316 16.2947 2.65267 16.2163C2.62653 16.1335 2.58733 16.0704 2.53506 16.0268C2.48279 15.9833 2.40874 15.9528 2.31292 15.9354C2.21709 15.9179 2.08642 15.9092 1.9209 15.9092H1.03885ZM0.254807 13.4918H3.52818L3.59352 14.6809H3.37137L2.89441 13.7727H1.54848V16.9611C1.54848 17.1136 1.55065 17.2377 1.55501 17.3336C1.55936 17.425 1.57461 17.4947 1.60074 17.5426C1.63124 17.5993 1.67915 17.6385 1.74449 17.6602C1.80982 17.6777 1.91001 17.6973 2.04504 17.719V17.9347C1.88823 17.9259 1.76409 17.9216 1.67262 17.9216C1.58114 17.9172 1.49621 17.9151 1.4178 17.9151C1.34375 17.9107 1.24793 17.9085 1.13032 17.9085C1.02578 17.9085 0.936487 17.9107 0.862439 17.9151C0.788391 17.9151 0.705631 17.9172 0.614159 17.9216C0.527043 17.9216 0.407259 17.9259 0.254807 17.9347V17.719C0.381124 17.6973 0.476952 17.6777 0.542289 17.6602C0.611981 17.6428 0.659895 17.608 0.68603 17.5557C0.71652 17.5078 0.733943 17.4381 0.738299 17.3466C0.747011 17.2508 0.751366 17.1201 0.751366 16.9546V14.5371C0.751366 14.3455 0.747011 14.1974 0.738299 14.0929C0.729587 13.9883 0.707808 13.9099 0.672962 13.8576C0.642472 13.8097 0.594558 13.7771 0.529221 13.7596C0.46824 13.7379 0.376769 13.7204 0.254807 13.7074V13.4918Z" fill="#161613"/>
<path d="M6.6082 18C6.27716 18 5.97879 17.9477 5.71308 17.8432C5.44738 17.7343 5.2187 17.584 5.02705 17.3924C4.83539 17.1964 4.6873 16.9633 4.58276 16.6933C4.47822 16.4232 4.42595 16.1227 4.42595 15.7916C4.42595 15.4519 4.4804 15.1382 4.58929 14.8508C4.69819 14.5589 4.84846 14.3063 5.04012 14.0929C5.23613 13.8751 5.46698 13.7052 5.73269 13.5832C5.99839 13.4613 6.28805 13.4003 6.60167 13.4003C6.93706 13.4003 7.23761 13.4569 7.50331 13.5702C7.77337 13.6791 8.00205 13.8337 8.18935 14.0341C8.38101 14.2344 8.52475 14.4696 8.62057 14.7397C8.72076 15.0097 8.77085 15.3059 8.77085 15.6283C8.77085 15.9767 8.7164 16.2947 8.60751 16.5822C8.50297 16.8697 8.35487 17.1201 8.16322 17.3336C7.97156 17.547 7.74288 17.7125 7.47718 17.8301C7.21148 17.9434 6.92182 18 6.6082 18ZM6.6278 17.719C6.91093 17.719 7.14832 17.6341 7.33997 17.4642C7.53163 17.2944 7.67537 17.0613 7.77119 16.7651C7.87138 16.4689 7.92147 16.1314 7.92147 15.7524C7.92147 15.4693 7.89316 15.2036 7.83653 14.9553C7.77991 14.707 7.69497 14.4871 7.58172 14.2954C7.47282 14.1037 7.33344 13.9535 7.16356 13.8446C6.99804 13.7357 6.80421 13.6812 6.58206 13.6812C6.30329 13.6812 6.0659 13.764 5.86989 13.9295C5.67824 14.095 5.53232 14.3237 5.43214 14.6156C5.33631 14.903 5.2884 15.2363 5.2884 15.6152C5.2884 15.9027 5.31671 16.1727 5.37333 16.4254C5.42996 16.678 5.5149 16.9023 5.62815 17.0983C5.7414 17.29 5.88078 17.4425 6.0463 17.5557C6.21618 17.6646 6.41001 17.719 6.6278 17.719Z" fill="#161613"/>
<path d="M13.5081 14.3934V16.0007C13.5081 16.641 13.3774 17.1354 13.1161 17.4838C12.8547 17.8279 12.43 18 11.842 18C11.4064 18 11.0579 17.9259 10.7966 17.7779C10.5396 17.6298 10.3523 17.4098 10.2347 17.118C10.1214 16.8218 10.0648 16.458 10.0648 16.0268V14.4718C10.0648 14.3063 10.0605 14.1778 10.0518 14.0863C10.0474 13.9905 10.0322 13.9186 10.006 13.8707C9.97989 13.8184 9.93415 13.7836 9.86881 13.7662C9.80348 13.7444 9.70547 13.7248 9.5748 13.7074V13.4918C9.73161 13.4961 9.85357 13.5005 9.94068 13.5048C10.0278 13.5092 10.1062 13.5135 10.1759 13.5179C10.2499 13.5179 10.3414 13.5179 10.4503 13.5179C10.5679 13.5179 10.6637 13.5179 10.7378 13.5179C10.8162 13.5135 10.9011 13.5092 10.9926 13.5048C11.0841 13.5005 11.206 13.4961 11.3585 13.4918V13.7074C11.2235 13.7248 11.1233 13.7444 11.0579 13.7662C10.997 13.7836 10.9512 13.8228 10.9207 13.8838C10.8946 13.9317 10.8794 14.0014 10.875 14.0929C10.8706 14.1843 10.8685 14.3106 10.8685 14.4718V15.9158C10.8685 16.2686 10.9033 16.5713 10.973 16.8239C11.0427 17.0766 11.1581 17.2682 11.3193 17.3989C11.4805 17.5296 11.6982 17.5949 11.9727 17.5949C12.3385 17.5949 12.6151 17.4817 12.8024 17.2552C12.9941 17.0243 13.0899 16.6497 13.0899 16.1314V14.3934C13.0899 14.2627 13.0856 14.1582 13.0769 14.0798C13.0725 13.997 13.0594 13.9317 13.0376 13.8838C13.0072 13.8228 12.9571 13.7836 12.8874 13.7662C12.822 13.7444 12.7284 13.7248 12.6064 13.7074V13.4918C12.7197 13.4961 12.8111 13.5005 12.8808 13.5048C12.9549 13.5092 13.0246 13.5135 13.0899 13.5179C13.1596 13.5179 13.2424 13.5179 13.3382 13.5179C13.4253 13.5179 13.4972 13.5179 13.5538 13.5179C13.6104 13.5135 13.6714 13.5092 13.7368 13.5048C13.8021 13.5005 13.8892 13.4961 13.9981 13.4918V13.7074C13.8805 13.7248 13.789 13.7422 13.7237 13.7596C13.6627 13.7727 13.617 13.8032 13.5865 13.8511C13.556 13.8947 13.5342 13.96 13.5211 14.0471C13.5124 14.1299 13.5081 14.2453 13.5081 14.3934Z" fill="#161613"/>
<path d="M18.6058 13.5179C18.7103 13.5179 18.8127 13.5157 18.9129 13.5114C19.013 13.5026 19.1285 13.4961 19.2591 13.4918V13.7074C19.1241 13.7248 19.0261 13.7444 18.9651 13.7662C18.9085 13.7836 18.8649 13.8228 18.8345 13.8838C18.8083 13.936 18.7931 14.0145 18.7887 14.119C18.7844 14.2235 18.7822 14.3651 18.7822 14.5437V17.9347H18.5208L15.6525 14.3934L15.6591 16.8762C15.6591 17.0591 15.6613 17.2029 15.6656 17.3074C15.67 17.412 15.6852 17.4904 15.7114 17.5426C15.7418 17.5993 15.7941 17.6385 15.8682 17.6602C15.9422 17.6777 16.0925 17.6973 16.319 17.719V17.9347C16.0925 17.9259 15.9183 17.9194 15.7963 17.9151C15.6787 17.9107 15.5698 17.9085 15.4696 17.9085C15.3564 17.9085 15.2453 17.9107 15.1364 17.9151C15.0319 17.9194 14.9142 17.9259 14.7836 17.9347V17.719C14.9099 17.6973 15.0035 17.6777 15.0645 17.6602C15.1255 17.6428 15.1691 17.6102 15.1952 17.5622C15.2257 17.51 15.2431 17.4316 15.2475 17.327C15.2562 17.2225 15.2605 17.0722 15.2605 16.8762V14.5502C15.2605 14.3542 15.2562 14.2039 15.2475 14.0994C15.2431 13.9905 15.2257 13.9121 15.1952 13.8642C15.1647 13.8163 15.1168 13.7836 15.0515 13.7662C14.9905 13.7444 14.9012 13.7248 14.7836 13.7074V13.4918H15.94L18.3836 16.543V14.5502C18.3836 14.3542 18.3793 14.2039 18.3706 14.0994C18.3662 13.9949 18.3488 13.9164 18.3183 13.8642C18.2922 13.8163 18.2399 13.7836 18.1615 13.7662C18.0874 13.7444 17.9415 13.7248 17.7237 13.7074V13.4918C17.9546 13.4961 18.131 13.5026 18.253 13.5114C18.3793 13.5157 18.4969 13.5179 18.6058 13.5179Z" fill="#161613"/>
<path d="M20.2241 13.4918H21.5178V17.9347H20.2241V17.719C20.3505 17.6973 20.4463 17.6777 20.5116 17.6602C20.577 17.6385 20.6249 17.6036 20.6554 17.5557C20.6859 17.5034 20.7033 17.4272 20.7076 17.327C20.7163 17.2225 20.7207 17.0766 20.7207 16.8893V14.5371C20.7207 14.3455 20.7163 14.1974 20.7076 14.0929C20.6989 13.9883 20.6771 13.9099 20.6423 13.8576C20.6118 13.8097 20.5639 13.7771 20.4986 13.7596C20.4376 13.7379 20.3461 13.7204 20.2241 13.7074V13.4918ZM21.1127 17.9347V13.4918H22.0928C22.4499 13.4918 22.7788 13.5331 23.0794 13.6159C23.3799 13.6943 23.6434 13.8206 23.8699 13.9949C24.1008 14.1647 24.2772 14.3847 24.3992 14.6548C24.5255 14.9248 24.5886 15.2471 24.5886 15.6217C24.5886 15.931 24.5277 16.225 24.4057 16.5038C24.2881 16.7826 24.1182 17.0287 23.8961 17.2421C23.6739 17.4555 23.406 17.6254 23.0924 17.7517C22.7832 17.8737 22.4369 17.9347 22.0536 17.9347H21.1127ZM21.5178 14.3085V17.6602H22.0405C22.4064 17.6602 22.7135 17.5927 22.9618 17.4577C23.2144 17.3183 23.406 17.1092 23.5367 16.8305C23.6674 16.5517 23.7327 16.1989 23.7327 15.772C23.7327 15.1099 23.5933 14.6112 23.3146 14.2758C23.0358 13.936 22.6351 13.7662 22.1124 13.7662H21.5178V14.3085Z" fill="#161613"/>
<path d="M28.3559 16.6802H26.3174V16.3862H28.3559V16.6802ZM27.5653 13.4918L29.0158 16.9873C29.0811 17.1397 29.1334 17.2617 29.1726 17.3532C29.2118 17.4403 29.251 17.5078 29.2902 17.5557C29.3294 17.6036 29.3795 17.6385 29.4405 17.6602C29.5014 17.682 29.5864 17.7016 29.6953 17.719V17.9347C29.5733 17.9259 29.4383 17.9194 29.2902 17.9151C29.1464 17.9107 28.9591 17.9085 28.7283 17.9085C28.5758 17.9085 28.4517 17.9107 28.3559 17.9151C28.2644 17.9151 28.1816 17.9172 28.1076 17.9216C28.0379 17.9259 27.9595 17.9303 27.8724 17.9347V17.719C28.0074 17.6929 28.1141 17.6668 28.1925 17.6406C28.2753 17.6145 28.3167 17.5535 28.3167 17.4577C28.3167 17.3401 28.2622 17.1463 28.1533 16.8762L27.2125 14.5502L27.3039 14.4914L26.2847 17.0657C26.2455 17.1615 26.2172 17.2421 26.1998 17.3074C26.1823 17.3728 26.1736 17.4294 26.1736 17.4773C26.1736 17.5688 26.2172 17.6276 26.3043 17.6537C26.3958 17.6755 26.5025 17.6973 26.6244 17.719V17.9347C26.4894 17.9259 26.3653 17.9194 26.252 17.9151C26.1431 17.9107 26.0212 17.9085 25.8861 17.9085C25.7816 17.9085 25.6749 17.9107 25.566 17.9151C25.4571 17.9194 25.3438 17.9259 25.2262 17.9347V17.719C25.3525 17.6973 25.4484 17.6711 25.5137 17.6406C25.5791 17.6102 25.6335 17.5579 25.6771 17.4838C25.725 17.4054 25.7816 17.2835 25.8469 17.118L27.3497 13.4918H27.5653Z" fill="#161613"/>
<path d="M29.9728 14.8965L30.1035 13.4918H33.8408L33.978 14.8965H33.7428L33.2005 13.7923H30.7504L30.2015 14.8965H29.9728ZM31.5736 13.6028H32.3707V16.9611C32.3707 17.1136 32.3729 17.2377 32.3772 17.3336C32.3816 17.425 32.3968 17.4947 32.423 17.5426C32.4535 17.5993 32.5014 17.6385 32.5667 17.6602C32.6321 17.6777 32.7322 17.6973 32.8673 17.719V17.9347C32.7148 17.9259 32.5929 17.9216 32.5014 17.9216C32.4099 17.9172 32.325 17.9151 32.2466 17.9151C32.1725 17.9107 32.0745 17.9085 31.9526 17.9085C31.8524 17.9085 31.7653 17.9107 31.6912 17.9151C31.6172 17.9151 31.5344 17.9172 31.4429 17.9216C31.3558 17.9216 31.2338 17.9259 31.077 17.9347V17.719C31.2077 17.6973 31.3057 17.6777 31.3711 17.6602C31.4364 17.6428 31.4843 17.608 31.5148 17.5557C31.5409 17.5078 31.5562 17.4381 31.5605 17.3466C31.5692 17.2508 31.5736 17.1201 31.5736 16.9546V13.6028Z" fill="#161613"/>
<path d="M36.104 14.4653V16.9611C36.104 17.1136 36.1062 17.2377 36.1105 17.3336C36.1149 17.425 36.1301 17.4947 36.1563 17.5426C36.1868 17.5993 36.2347 17.6385 36.3 17.6602C36.3653 17.6777 36.4655 17.6973 36.6006 17.719V17.9347C36.4437 17.9259 36.3196 17.9216 36.2281 17.9216C36.141 17.9172 36.0604 17.9151 35.9864 17.9151C35.9123 17.9107 35.8187 17.9085 35.7054 17.9085C35.5965 17.9085 35.5029 17.9107 35.4245 17.9151C35.3461 17.9151 35.2611 17.9172 35.1697 17.9216C35.0826 17.9216 34.9628 17.9259 34.8103 17.9347V17.719C34.9366 17.6973 35.0325 17.6777 35.0978 17.6602C35.1675 17.6428 35.2154 17.608 35.2415 17.5557C35.272 17.5078 35.2895 17.4381 35.2938 17.3466C35.3025 17.2508 35.3069 17.1201 35.3069 16.9546V14.4718C35.3069 14.3063 35.3025 14.1778 35.2938 14.0863C35.2895 13.9905 35.272 13.9186 35.2415 13.8707C35.2154 13.8184 35.1675 13.7836 35.0978 13.7662C35.0325 13.7444 34.9366 13.7248 34.8103 13.7074V13.4918C34.9628 13.4961 35.0826 13.5005 35.1697 13.5048C35.2611 13.5092 35.3461 13.5135 35.4245 13.5179C35.5029 13.5179 35.5965 13.5179 35.7054 13.5179C35.8187 13.5179 35.9123 13.5179 35.9864 13.5179C36.0604 13.5135 36.141 13.5092 36.2281 13.5048C36.3196 13.5005 36.4437 13.4961 36.6006 13.4918V13.7074C36.4655 13.7248 36.3653 13.7444 36.3 13.7662C36.2347 13.7836 36.1868 13.8228 36.1563 13.8838C36.1301 13.9317 36.1149 14.0014 36.1105 14.0929C36.1062 14.1843 36.104 14.3085 36.104 14.4653Z" fill="#161613"/>
<path d="M39.7536 18C39.4226 18 39.1242 17.9477 38.8585 17.8432C38.5928 17.7343 38.3641 17.584 38.1725 17.3924C37.9808 17.1964 37.8327 16.9633 37.7282 16.6933C37.6236 16.4232 37.5714 16.1227 37.5714 15.7916C37.5714 15.4519 37.6258 15.1382 37.7347 14.8508C37.8436 14.5589 37.9939 14.3063 38.1855 14.0929C38.3815 13.8751 38.6124 13.7052 38.8781 13.5832C39.1438 13.4613 39.4335 13.4003 39.7471 13.4003C40.0825 13.4003 40.383 13.4569 40.6487 13.5702C40.9188 13.6791 41.1475 13.8337 41.3348 14.0341C41.5264 14.2344 41.6702 14.4696 41.766 14.7397C41.8662 15.0097 41.9163 15.3059 41.9163 15.6283C41.9163 15.9767 41.8618 16.2947 41.7529 16.5822C41.6484 16.8697 41.5003 17.1201 41.3086 17.3336C41.117 17.547 40.8883 17.7125 40.6226 17.8301C40.3569 17.9434 40.0672 18 39.7536 18ZM39.7732 17.719C40.0563 17.719 40.2937 17.6341 40.4854 17.4642C40.677 17.2944 40.8208 17.0613 40.9166 16.7651C41.0168 16.4689 41.0669 16.1314 41.0669 15.7524C41.0669 15.4693 41.0386 15.2036 40.9819 14.9553C40.9253 14.707 40.8404 14.4871 40.7271 14.2954C40.6182 14.1037 40.4789 13.9535 40.309 13.8446C40.1435 13.7357 39.9496 13.6812 39.7275 13.6812C39.4487 13.6812 39.2113 13.764 39.0153 13.9295C38.8237 14.095 38.6777 14.3237 38.5776 14.6156C38.4817 14.903 38.4338 15.2363 38.4338 15.6152C38.4338 15.9027 38.4621 16.1727 38.5187 16.4254C38.5754 16.678 38.6603 16.9023 38.7736 17.0983C38.8868 17.29 39.0262 17.4425 39.1917 17.5557C39.3616 17.6646 39.5554 17.719 39.7732 17.719Z" fill="#161613"/>
<path d="M46.7254 13.5179C46.8299 13.5179 46.9323 13.5157 47.0324 13.5114C47.1326 13.5026 47.2481 13.4961 47.3787 13.4918V13.7074C47.2437 13.7248 47.1457 13.7444 47.0847 13.7662C47.0281 13.7836 46.9845 13.8228 46.954 13.8838C46.9279 13.936 46.9127 14.0145 46.9083 14.119C46.9039 14.2235 46.9018 14.3651 46.9018 14.5437V17.9347H46.6404L43.7721 14.3934L43.7787 16.8762C43.7787 17.0591 43.7808 17.2029 43.7852 17.3074C43.7896 17.412 43.8048 17.4904 43.8309 17.5426C43.8614 17.5993 43.9137 17.6385 43.9878 17.6602C44.0618 17.6777 44.2121 17.6973 44.4386 17.719V17.9347C44.2121 17.9259 44.0378 17.9194 43.9159 17.9151C43.7983 17.9107 43.6894 17.9085 43.5892 17.9085C43.4759 17.9085 43.3649 17.9107 43.256 17.9151C43.1514 17.9194 43.0338 17.9259 42.9032 17.9347V17.719C43.0295 17.6973 43.1231 17.6777 43.1841 17.6602C43.2451 17.6428 43.2886 17.6102 43.3148 17.5622C43.3453 17.51 43.3627 17.4316 43.3671 17.327C43.3758 17.2225 43.3801 17.0722 43.3801 16.8762V14.5502C43.3801 14.3542 43.3758 14.2039 43.3671 14.0994C43.3627 13.9905 43.3453 13.9121 43.3148 13.8642C43.2843 13.8163 43.2364 13.7836 43.171 13.7662C43.1101 13.7444 43.0208 13.7248 42.9032 13.7074V13.4918H44.0596L46.5032 16.543V14.5502C46.5032 14.3542 46.4989 14.2039 46.4902 14.0994C46.4858 13.9949 46.4684 13.9164 46.4379 13.8642C46.4117 13.8163 46.3595 13.7836 46.2811 13.7662C46.207 13.7444 46.0611 13.7248 45.8433 13.7074V13.4918C46.0742 13.4961 46.2506 13.5026 46.3725 13.5114C46.4989 13.5157 46.6165 13.5179 46.7254 13.5179Z" fill="#161613"/>
</svg>
