<svg width="78" height="18" viewBox="0 0 78 18" fill="none" xmlns="http://www.w3.org/2000/svg">
<path fill-rule="evenodd" clip-rule="evenodd" d="M60.3821 16.8592C61.1032 17.6197 62.1505 18 63.524 18C64.8975 18 65.9448 17.6197 66.6658 16.8592C67.3869 16.0817 67.7475 14.9746 67.7475 13.538V0H65.0177V13.7408C65.0177 14.3493 64.8889 14.7887 64.6314 15.0592C64.391 15.3296 64.039 15.4648 63.5755 15.4648C63.1119 15.4648 62.7514 15.3296 62.4939 15.0592C62.2535 14.7887 62.1333 14.3493 62.1333 13.7408V0H59.3005V13.538C59.3005 14.9746 59.6611 16.0817 60.3821 16.8592ZM69.0182 2.53521H71.9798V17.7465H74.8126V2.53521H77.7742V0H69.0182V2.53521ZM0 0.0947157H2.71137L3.96474 13.8562H4.01589L5.346 0.0947157H8.41547L9.74558 13.8562H9.79674L11.0501 0.0947157H13.4801L11.664 18H8.15969L6.88074 5.92672H6.82958L5.55063 18H1.81611L0 0.0947157ZM14.9033 0.0947157H22.577V2.65261H17.717V7.38472H21.5794V9.94261H17.717V15.4421H22.577V18H14.9033V0.0947157ZM27.0094 0.0947157H24.1957V18H27.0094V12.2959L28.1348 10.0193L29.9321 18L32.5373 18L30.0533 6.66851L33.4041 0.0947157H30.5904L27.0094 7.64051V0.0947157Z" fill="#161613"/>
<path fill-rule="evenodd" clip-rule="evenodd" d="M40.3531 2.68421H49.8268C52.7917 2.68421 55.1952 5.08774 55.1952 8.05263V9.94737C55.1952 12.9123 52.7917 15.3158 49.8268 15.3158H46.4212V13.0263C46.9509 12.7629 47.3973 12.3579 47.7108 11.8562C48.0244 11.3545 48.1928 10.7758 48.1975 10.1842V9.47369C48.2 9.39435 48.1866 9.31531 48.158 9.24128C48.1293 9.16724 48.0861 9.09971 48.0309 9.0427C47.9757 8.9857 47.9095 8.94038 47.8364 8.90945C47.7633 8.87851 47.6847 8.86259 47.6054 8.86264C47.526 8.86259 47.4474 8.87851 47.3743 8.90945C47.3012 8.94038 47.2351 8.9857 47.1798 9.0427C47.1246 9.09971 47.0814 9.16724 47.0528 9.24128C47.0242 9.31531 47.0107 9.39435 47.0133 9.47369V10.1842C47.0133 10.4654 46.9545 10.7435 46.8405 11.0005C46.7265 11.2576 46.56 11.4879 46.3516 11.6767C46.1432 11.8654 45.8976 12.0084 45.6305 12.0965C45.3635 12.1846 45.081 12.2157 44.8012 12.1879C44.2906 12.1235 43.8222 11.8716 43.487 11.4812C43.1517 11.0908 42.9735 10.5897 42.9869 10.0753V9.47369C42.9869 9.31665 42.9246 9.16605 42.8135 9.05501C42.7025 8.94396 42.5519 8.88158 42.3948 8.88158C42.2378 8.88158 42.0872 8.94396 41.9762 9.05501C41.8651 9.16605 41.8027 9.31665 41.8027 9.47369V10.0563C41.8007 10.6655 41.965 11.2637 42.2781 11.7862C42.5911 12.3088 43.041 12.736 43.579 13.0216V15.3158H40.3531C37.3882 15.3158 34.9847 12.9123 34.9847 9.94737V8.05263C34.9847 5.08774 37.3882 2.68421 40.3531 2.68421ZM32.3005 8.05263C32.3005 3.60529 35.9058 9.53674e-07 40.3531 9.53674e-07H49.8268C54.2742 9.53674e-07 57.8795 3.60529 57.8795 8.05263V9.94737C57.8795 14.3947 54.2742 18 49.8268 18H40.3531C35.9058 18 32.3005 14.3947 32.3005 9.94737V8.05263ZM50.4522 6.93L49.5048 6.77369C49.4475 6.7695 49.3907 6.78721 49.3458 6.82325C49.301 6.85929 49.2715 6.91097 49.2633 6.9679L49.178 7.44158C49.1737 7.4745 49.1622 7.50604 49.1441 7.53391C49.1261 7.56177 49.1021 7.58526 49.0738 7.60263C49.0462 7.62088 49.0149 7.63287 48.9822 7.63778C48.9495 7.64269 48.9161 7.64039 48.8843 7.63106C46.3437 6.94005 43.6694 6.9042 41.1112 7.52685C41.0794 7.53447 41.0464 7.53558 41.0142 7.5301C40.982 7.52461 40.9512 7.51266 40.9238 7.49494C40.8963 7.47723 40.8727 7.45414 40.8545 7.42705C40.8362 7.39997 40.8236 7.36946 40.8175 7.33737L40.7369 6.9679C40.7287 6.90918 40.6978 6.85602 40.6509 6.81974C40.604 6.78346 40.5448 6.76693 40.4859 6.77369L39.548 6.93C39.5171 6.93516 39.4876 6.94638 39.4611 6.96301C39.4346 6.97964 39.4117 7.00135 39.3936 7.02689C39.3756 7.05244 39.3628 7.08131 39.3559 7.11183C39.3491 7.14236 39.3484 7.17393 39.3538 7.20474L39.8275 10.0042C39.839 10.0659 39.8742 10.1208 39.9255 10.157C39.9768 10.1933 40.0401 10.2081 40.1022 10.1984L41.0496 10.0421C41.1052 10.0236 41.1522 9.98558 41.1818 9.93503C41.2114 9.88449 41.2217 9.82491 41.2106 9.76737L41.0543 8.73948C41.0454 8.68016 41.059 8.61966 41.0922 8.56976C41.1255 8.51985 41.1761 8.48411 41.2343 8.46948C43.7083 7.85529 46.3 7.89938 48.7517 8.59737C48.8081 8.61392 48.8565 8.65047 48.8879 8.70018C48.9193 8.74988 48.9315 8.80933 48.9222 8.86737L48.7896 9.76737C48.7799 9.82943 48.7947 9.89282 48.831 9.94411C48.8672 9.99539 48.922 10.0305 48.9838 10.0421L49.9312 10.1984C49.9932 10.2081 50.0566 10.1933 50.1079 10.157C50.1592 10.1208 50.1943 10.0659 50.2059 10.0042L50.6796 7.20474C50.685 7.1714 50.6832 7.13729 50.6744 7.1047C50.6655 7.0721 50.6498 7.04178 50.6283 7.01576C50.6067 6.98974 50.5799 6.96862 50.5495 6.95383C50.5191 6.93904 50.486 6.93092 50.4522 6.93ZM43.8159 10.2837C43.8159 10.5978 43.9407 10.899 44.1627 11.1211C44.3848 11.3431 44.686 11.4679 45.0001 11.4679C45.3142 11.4679 45.6154 11.3431 45.8375 11.1211C46.0595 10.899 46.1843 10.5978 46.1843 10.2837C46.1843 9.96962 46.0595 9.66841 45.8375 9.44632C45.6154 9.22424 45.3142 9.09948 45.0001 9.09948C44.686 9.09948 44.3848 9.22424 44.1627 9.44632C43.9407 9.66841 43.8159 9.96962 43.8159 10.2837Z" fill="#161613"/>
</svg>
