<svg width="106" height="18" viewBox="0 0 106 18" fill="none" xmlns="http://www.w3.org/2000/svg">
<path d="M33.0861 17.035H22.7615V2.9751H33.0861V5.64019H25.7623V8.59907H31.8899V11.2642H25.7623V14.3699H33.0861V17.035Z" fill="black"/>
<path d="M37.8513 17.035H34.8504V2.9751H37.8513V17.035Z" fill="black"/>
<path d="M44.5485 17.2449C42.2611 17.2449 40.2256 16.4055 39.3442 15.1674L40.7292 13.1318C41.5896 14.0552 43.0795 14.9575 44.6324 14.9575C45.4508 14.9575 45.9335 14.7057 45.9335 14.1601C45.9335 13.6145 45.3459 13.4046 44.2547 13.1318L42.8697 12.7961C41.023 12.3134 39.6799 11.5789 39.6799 9.77422C39.6799 7.75967 41.3168 6.56353 43.835 6.56353C46.0594 6.56353 47.6752 7.52883 48.3887 8.43119L47.0457 10.4457C46.0384 9.3965 44.7793 8.8299 43.5831 8.8299C42.8487 8.8299 42.408 9.10271 42.408 9.60634C42.408 10.152 42.8487 10.3618 44.2127 10.7395L45.3669 11.0543C47.6332 11.6629 48.6195 12.5442 48.6195 14.1181C48.6195 16.1117 46.9407 17.2449 44.5485 17.2449Z" fill="black"/>
<path d="M52.4037 17.2659C50.8089 17.2659 49.6967 16.4055 49.6967 14.7477C49.6967 13.1948 50.6829 12.2924 52.6345 11.6209L55.7823 10.4457C55.6774 9.58536 55.2786 9.10271 54.1455 9.10271C52.8444 9.10271 51.6483 9.83718 50.9348 10.8654L49.4238 8.68301C50.4521 7.5708 52.1519 6.54254 54.3553 6.54254C56.9574 6.54254 58.4684 7.92755 58.4684 10.5087V14.0342C58.4684 14.4958 58.6362 14.6427 59.014 14.6427H59.6225V17.035H57.8598C56.7476 17.035 55.7403 16.5314 55.7403 15.0624V14.3699C55.4046 15.713 54.5022 17.2659 52.4037 17.2659ZM52.4667 14.307C52.4667 14.7896 52.8024 15.0624 53.5159 15.0624C54.9429 15.0624 55.7403 14.3489 55.7403 13.0898V12.3764L53.5579 13.2787C52.7395 13.6145 52.4667 13.9083 52.4667 14.307Z" fill="black"/>
<path d="M64.8658 17.2449C62.5994 17.2449 61.5292 15.9018 61.5292 13.9922V9.03975H59.9973V6.75239H61.5292V5.53526L64.5301 3.96139V6.75239H67.384V9.03975H64.5301V13.4466C64.5301 14.286 64.9498 14.5798 65.5373 14.5798C66.1879 14.5798 66.7545 14.0552 67.0692 13.4886L67.9296 15.9438C67.4889 16.5104 66.4397 17.2449 64.8658 17.2449Z" fill="black"/>
<path d="M72.3637 17.035H69.3628V2.9751H72.3637V8.59907H78.3654V2.9751H81.3662V17.035H78.3654V11.2642H72.3637V17.035Z" fill="black"/>
<path d="M86.7913 17.2449C84.8397 17.2449 83.6226 16.0487 83.6226 13.9292V6.75239H86.6235V12.88C86.6235 14.1391 86.9592 14.9155 88.3442 14.9155C89.7712 14.9155 90.2119 14.1181 90.2119 12.4393V6.75239H93.2127V17.035H90.2119V14.1601C89.8551 15.7969 88.8688 17.2449 86.7913 17.2449Z" fill="black"/>
<path d="M98.3265 17.035H95.3257V2.9751H98.3265V9.69028C98.6203 8.03247 99.4597 6.54254 101.6 6.54254C103.992 6.54254 105.566 8.49414 105.566 11.8937C105.566 15.3143 103.992 17.2659 101.474 17.2659C99.3338 17.2659 98.5993 15.7969 98.3265 14.1391V17.035ZM98.3265 12.4603C98.3265 14.1391 99.019 14.9155 100.278 14.9155C101.642 14.9155 102.503 13.8663 102.503 11.8937C102.503 9.9421 101.642 8.87187 100.278 8.87187C99.019 8.87187 98.3265 9.6693 98.3265 11.3481V12.4603Z" fill="black"/>
<path fill-rule="evenodd" clip-rule="evenodd" d="M0.304089 5.5387C0.136145 4.34318 0.96916 3.23788 2.16468 3.06993L17.7504 0.880491L18.3585 5.20985L2.77286 7.39929C1.57734 7.56724 0.472033 6.73422 0.304089 5.5387Z" fill="black"/>
<path fill-rule="evenodd" clip-rule="evenodd" d="M0.206299 9.82314C0.206299 8.61588 1.18497 7.63721 2.39223 7.63721H18.131V12.0091H2.39223C1.18497 12.0091 0.206299 11.0304 0.206299 9.82314Z" fill="black"/>
<path fill-rule="evenodd" clip-rule="evenodd" d="M0.206299 15.5065C0.206299 14.2992 1.18497 13.3206 2.39223 13.3206H18.131V17.6924H2.39223C1.18497 17.6924 0.206299 16.7137 0.206299 15.5065Z" fill="black"/>
</svg>
